<?xml version="1.0" encoding="utf-8"?>
<!-- Generator: Adobe Illustrator 19.2.1, SVG Export Plug-In . SVG Version: 6.00 Build 0)  -->
<svg version="1.1" id="Layer_1" xmlns="http://www.w3.org/2000/svg" xmlns:xlink="http://www.w3.org/1999/xlink" x="0px" y="0px"
	 viewBox="0 0 80 80" style="enable-background:new 0 0 80 80;" xml:space="preserve">
<style type="text/css">
	.st0{fill:#012B5D;}
</style>
<path class="st0" d="M75.1,48.7c-0.9-0.7-1.8-0.2-1.8-0.2c-1.5,1.1-3.4,2.1-5.3,2.3c-1.8,0.3-3.4-0.5-3.4-0.5
	c-2.1-1.4-3.3-4.2-3.3-4.2c-1.3-2.8-1.9-6.2-1.9-6.2c-0.6-2.8-0.6-4.4-0.6-4.4c0.3-0.4,1.9-3.2,2.5-4.3c0.6-1.1,3.9-6.6,5.9-14
	s1.3-9.5,1.3-9.5c-0.1-1.6-1.3-1.4-1.3-1.4h-4.3c-1.4,0-1.5,2.1-1.5,2.1v2.9c0,5.5-0.5,8.6-0.5,8.6c-1.7,6.9-3.5,9.6-3.5,9.6
	c-0.3-1.2-1.1-3.3-1.1-3.3c-0.3-1-0.5-1.7-0.5-1.7c-1.4-4.2-2.5-6.6-2.5-6.6c-1.7-4.3-4.5-7.3-4.5-7.3c-2.4-2.7-4.7-3.8-7-4.8
	s-6.1-1.3-7.4-1.3c-1.3,0-2.3-0.1-4.4,0.2c-2.1,0.3-4.3,1.1-4.3,1.1c-4,1.3-7.4,4.9-7.4,4.9c-3.4,3.2-5.3,7.2-5.3,7.2
	c-2.6,4.6-2.7,8.4-2.7,8.4H8.1c-2.1,1.8-2,4.9-2,4.9h3.8v3.5H7.1c-2.4,1.5-2,4.7-2,4.7h5.3c1.3,4.7,2,6.8,3,8.3
	c1,1.6,2.3,3.9,6.8,6.8c5,3.4,11.4,2.7,11.4,2.7c3.7-0.1,6.2-0.9,6.2-0.9c4-1.2,6.5-3.2,6.5-3.2c3.4-2.6,3.8-3.2,7.1-6.9
	c1,2.5,1.5,3.3,1.5,3.3c1.9,4.2,3.8,5.3,3.8,5.3c2.8,2.5,6.7,2.1,6.7,2.1c3.8-0.2,4.8-0.6,7.6-2.4c2.8-1.8,4-3.7,4-3.7
	C76,49.6,75.1,48.7,75.1,48.7z M49.7,42.1c-1,1.2-3.5,3.5-6.1,5.9s-7.2,3.8-7.2,3.8c-1.4,0.6-3,0.7-3,0.7c-2.1,0.2-4-0.4-4-0.4
	c-3.4-1.1-4.5-2.6-4.5-2.6c-1.4-1.6-2.7-4.7-2.7-4.7c-1.3-3.5-1.3-5.3-1.3-5.3h7.5c2.5-1.3,2.1-4.7,2.1-4.7h-10v-3.6h9.7
	c3.1-0.8,2.6-4.8,2.6-4.8h-12c0.3-2.3,0.5-5.3,2.6-9.5s4.3-6.1,4.3-6.1c2.9-2.6,6.9-2.6,6.9-2.6c5.7,0.1,7.2,3.7,7.2,3.7
	c1.1,1.8,2.9,7.3,2.9,7.3c0.5,2,1.8,7.5,2.2,9c0.1,0.5,0.4,1.9,0.7,3.4c0.3,2.8,1.9,9.8,1.9,9.8c0.1,0.3,0.1,0.4,0.2,0.6L49.7,42.1z
	"/>
<g>
	<path class="st0" d="M2.1,64.5c0.8-2.4,2.6-3.6,5.3-3.6c2.5,0,4.1,1.1,4.1,2.9c0,0.5-0.1,1.1-0.3,2L10,70.4c-0.3,1.3-0.4,2-0.4,3
		H7.3c0-0.7,0-1,0.1-1.5c-1,1.2-2.1,1.7-3.5,1.7c-2.2,0-3.5-1.2-3.5-3.1c0-1.8,1.1-3.1,3.5-3.8c1.2-0.4,1.3-0.4,3.7-0.9
		c0.7-0.2,0.7-0.2,1.3-0.3L9,65.2c0.1-0.4,0.1-0.7,0.1-1c0-0.8-0.7-1.3-1.9-1.3c-1.4,0-2.2,0.5-2.6,1.6H2.1L2.1,64.5z M8.4,67.2
		c-1.9,0.3-3,0.6-3.7,0.9c-1.2,0.5-1.7,1.1-1.7,2s0.7,1.4,1.7,1.4s2-0.5,2.6-1.3C7.6,69.7,7.9,69,8.2,68L8.4,67.2z"/>
</g>
<g>
	<path class="st0" d="M32.9,64.5c0.8-2.4,2.6-3.6,5.3-3.6c2.5,0,4.1,1.1,4.1,2.9c0,0.5-0.1,1.1-0.3,2l-1.2,4.6c-0.3,1.3-0.4,2-0.4,3
		h-2.3c0-0.7,0-1,0.1-1.5c-1,1.2-2.1,1.7-3.5,1.7c-2.2,0-3.5-1.2-3.5-3.1c0-1.8,1.1-3.1,3.5-3.8c1.2-0.4,1.3-0.4,3.7-0.9
		c0.7-0.2,0.7-0.2,1.3-0.3l0.1-0.3c0.1-0.4,0.1-0.7,0.1-1c0-0.8-0.7-1.3-1.9-1.3c-1.4,0-2.2,0.5-2.6,1.6L32.9,64.5L32.9,64.5z
		 M39.2,67.2c-1.9,0.3-3,0.6-3.7,0.9c-1.2,0.5-1.7,1.2-1.7,2.1s0.7,1.4,1.7,1.4s2-0.5,2.6-1.3c0.3-0.5,0.6-1.2,0.9-2.2L39.2,67.2z"
		/>
</g>
<g>
	<path class="st0" d="M70.3,64.5c0.8-2.4,2.6-3.6,5.3-3.6c2.5,0,4.1,1.1,4.1,2.9c0,0.5-0.1,1.1-0.3,2l-1.2,4.6c-0.3,1.3-0.4,2-0.4,3
		h-2.3c0-0.7,0-1,0.1-1.5c-1,1.2-2.1,1.7-3.5,1.7c-2.2,0-3.5-1.2-3.5-3.1c0-1.8,1.1-3.1,3.5-3.8c1.2-0.4,1.3-0.4,3.7-0.9
		c0.7-0.2,0.7-0.2,1.3-0.3l0.1-0.3c0.1-0.4,0.1-0.7,0.1-1c0-0.8-0.7-1.3-1.9-1.3c-1.4,0-2.2,0.5-2.6,1.6L70.3,64.5L70.3,64.5z
		 M76.5,67.2c-1.9,0.3-3,0.6-3.7,0.9c-1.2,0.5-1.7,1.2-1.7,2.1s0.7,1.4,1.7,1.4s2-0.5,2.6-1.3c0.3-0.5,0.6-1.2,0.9-2.2L76.5,67.2z"
		/>
</g>
<g>
	<path class="st0" d="M16.6,60.9c2.1,0,3.2,0.2,4.1,0.8c1.1,0.8,1.6,2,1.6,3.7c0,2.5-1,4.9-2.6,6.4c-1.4,1.3-2.7,1.6-5.9,1.6H11
		l3.2-12.6L16.6,60.9L16.6,60.9z M14.8,71.5c1.8,0,2.8-0.3,3.7-1.3c1-1.1,1.6-2.9,1.6-4.6c0-1.1-0.4-1.9-1-2.3
		c-0.4-0.2-1.2-0.4-2.2-0.4h-1.1l-2.2,8.6C13.5,71.5,14.8,71.5,14.8,71.5z"/>
</g>
<g>
	<path class="st0" d="M25.4,60.9l0.6,9l4.7-9h2.6l-6.5,12.3h-3l-1-12.3L25.4,60.9L25.4,60.9z"/>
</g>
<g>
	<path class="st0" d="M47,61.1c0,0.2,0,0.3,0,0.4c0,0.4-0.1,0.8-0.2,1.4c1.1-1.3,2.4-2,3.8-2c1.9,0,3.2,1.2,3.2,2.9
		c0,0.6-0.1,1.3-0.5,2.6l-1.7,6.9h-2.5l1.7-6.6c0.3-1.1,0.4-1.6,0.4-2.1c0-1-0.7-1.5-1.8-1.5c-1.7,0-2.9,1.3-3.5,4l-1.6,6.2h-2.5
		l2-7.9c0.6-2.5,0.7-3,0.7-3.8c0-0.2,0-0.2,0-0.4L47,61.1z"/>
</g>
<g>
	<path class="st0" d="M65,60.9l-0.4,1.9l-8.1,8.4h6.4l-0.5,2.1h-9.5l0.5-1.9l8-8.3h-5.7l0.5-2.1H65V60.9z"/>
</g>
<g>
	<path class="st0" d="M69.4,60.9l-3.1,12.4h-2.5l3.1-12.4H69.4z"/>
</g>
</svg>
