<?xml version="1.0" encoding="utf-8"?>
<!-- Generator: Adobe Illustrator 19.2.1, SVG Export Plug-In . SVG Version: 6.00 Build 0)  -->
<svg version="1.1" id="Capa_1" xmlns="http://www.w3.org/2000/svg" xmlns:xlink="http://www.w3.org/1999/xlink" x="0px" y="0px"
	 viewBox="0 0 80 80" style="enable-background:new 0 0 80 80;" xml:space="preserve">
<style type="text/css">
	.st0{fill:#002A57;}
	.st1{fill:#F1900E;}
	.st2{fill:none;stroke:#F1900E;stroke-width:0.4698;stroke-miterlimit:10;}
</style>
<circle class="st0" cx="40" cy="40" r="39.6"/>
<g>
	<path class="st1" d="M46.7,12.8H21c-1.5,0-2.7,1.2-2.7,2.7v49c0,1.5,1.2,2.7,2.7,2.7h25.7c1.5,0,2.7-1.2,2.7-2.7v-49
		C49.4,14,48.2,12.8,46.7,12.8z M29.7,14.5H38c0.5,0,0.9,0.4,0.9,0.9s-0.4,0.9-0.9,0.9h-8.3c-0.5,0-0.9-0.4-0.9-0.9
		C28.8,14.9,29.2,14.5,29.7,14.5z M33.8,66c-1.5,0-2.7-1.2-2.7-2.7c0-1.5,1.2-2.7,2.7-2.7s2.7,1.2,2.7,2.7
		C36.5,64.8,35.3,66,33.8,66z M47.6,59.2H20V17.9h27.6V59.2z"/>
	<g>
		<path class="st0" d="M58.4,42.2H44.7c0,0-1.1-1.4-0.1-4h14C58.6,38.2,59.5,40.2,58.4,42.2z"/>
		<path class="st1" d="M29,39.3v2.1h-1.5c0,0-0.3-0.2-0.3-0.7c0-0.4,0-1,0-1s0.2-0.4,0.5-0.4C28,39.3,29,39.3,29,39.3z"/>
		<ellipse class="st2" cx="26.2" cy="40.3" rx="2.3" ry="2.5"/>
		<rect x="46.7" y="39.5" class="st1" width="1.1" height="1.6"/>
		<rect x="48.4" y="39.5" class="st1" width="1.1" height="1.6"/>
		<rect x="50.1" y="39.5" class="st1" width="1.1" height="1.6"/>
		<rect x="52.3" y="39.5" class="st1" width="1.1" height="1.6"/>
		<rect x="54" y="39.5" class="st1" width="1.1" height="1.6"/>
		<rect x="55.7" y="39.5" class="st1" width="1.1" height="1.6"/>
		<path class="st1" d="M61.3,35.7c-0.2-1.4-1.5-1.2-1.5-1.2H42.6c-0.2,0-0.3,0-0.7-0.3l0,0c-1.3-1.1-3.1-1.8-5-1.8
			c-4.3,0-7.7,3.5-7.7,7.7c0,4.3,3.5,7.7,7.7,7.7c1.9,0,3.6-0.7,5-1.8c0.1-0.1,0.3-0.3,0.7-0.3c0,0,15.9,0,17.2,0s1.5-1.2,1.5-1.2
			C62.2,40.2,61.4,37.1,61.3,35.7z M41.5,42.7c-0.9,1.7-2.7,3-4.7,3c-3,0-5.4-2.4-5.4-5.4s2.4-5.4,5.4-5.4c2,0,3.8,1.3,4.7,3
			C41.1,38.7,41.1,41.9,41.5,42.7z M58,44.7h-6.4c-0.4,0-0.8-0.4-0.8-0.8c0-0.4,0.4-0.8,0.8-0.8H58c0.4,0,0.8,0.4,0.8,0.8
			C58.8,44.4,58.4,44.7,58,44.7z M58.4,42.2H44.7c0,0-1.1-1.4-0.1-4h14C58.6,38.2,59.5,40.2,58.4,42.2z"/>
		<g>
			<path class="st1" d="M38.5,39.2h-0.2v-1c0-0.6-0.4-1-0.4-1c-0.4-0.5-1-0.4-1.2-0.4s-0.8,0-1.2,0.4c0,0-0.4,0.4-0.4,1v1h-0.2
				c-0.3,0-0.6,0.3-0.6,0.6v2.8c0,0.3,0.3,0.6,0.6,0.6h3.7c0.3,0,0.6-0.3,0.6-0.6v-2.8C39.1,39.4,38.8,39.2,38.5,39.2z M35.6,39.2
				v-0.8c0,0,0-1,1-1s1,1,1,1v0.8H35.6z"/>
		</g>
	</g>
</g>
</svg>
