<?xml version="1.0" encoding="utf-8"?>
<!-- Generator: Adobe Illustrator 19.2.1, SVG Export Plug-In . SVG Version: 6.00 Build 0)  -->
<svg version="1.1" id="Capa_1" xmlns="http://www.w3.org/2000/svg" xmlns:xlink="http://www.w3.org/1999/xlink" x="0px" y="0px"
	 viewBox="0 0 80 80" style="enable-background:new 0 0 80 80;" xml:space="preserve">
<style type="text/css">
	.st0{fill:#002A57;}
	.st1{opacity:0.3;}
	.st2{fill:#F1900E;}
	.st3{fill:#F1900E;stroke:#002A57;stroke-width:1.3015;stroke-miterlimit:10;}
</style>
<circle class="st0" cx="40" cy="40" r="39.6"/>
<g class="st1">
	<path class="st2" d="M45.6,12.3H19.8c-1.5,0-2.7,1.2-2.7,2.7v49.3c0,1.5,1.2,2.7,2.7,2.7h25.8c1.5,0,2.7-1.2,2.7-2.7V15
		C48.4,13.5,47.1,12.3,45.6,12.3z M28.6,14h8.3c0.5,0,0.9,0.4,0.9,0.9s-0.4,0.9-0.9,0.9h-8.3c-0.5,0-0.9-0.4-0.9-0.9
		C27.7,14.4,28.1,14,28.6,14z M32.7,65.8c-1.5,0-2.7-1.2-2.7-2.7c0-1.5,1.2-2.7,2.7-2.7c1.5,0,2.7,1.2,2.7,2.7S34.2,65.8,32.7,65.8z
		 M46.6,59H18.8V17.5h27.8C46.6,17.5,46.6,59,46.6,59z"/>
	<g>
		<path class="st2" d="M37.5,33.3h-0.6v-2.7c-0.1-1.5-1.2-2.6-1.2-2.6c-1-1.2-2.5-1.2-3.1-1.2c-0.5,0-2.1,0-3.1,1.2
			c0,0-1.1,1.1-1.2,2.6v2.7h-0.4c-0.9,0-1.6,0.7-1.6,1.6v7.4c0,0.9,0.7,1.6,1.6,1.6h9.6c0.9,0,1.6-0.7,1.6-1.6v-7.4
			C39.1,34,38.4,33.3,37.5,33.3z M30.1,33.3v-2c0,0,0-2.7,2.6-2.7s2.6,2.7,2.6,2.7v2H30.1z"/>
	</g>
	<path class="st3" d="M45.5,59.5L45.5,59.5L31.2,42.1c0,0-1.6-1.8,0.2-3.5c0,0,1.6-1.3,3.2,0.7l9.8,12.1h0.1l-3.6-4.3
		c0,0-0.4-1.8,0.9-2.7c0,0,2-1.4,3.5,0.4l3.4,4.1h0.1l-3.4-4.1c0,0,0.2-1.4,1.2-1.9c0,0,1.8-1.2,3.2,0.5l3.1,3.8l0.1-0.1l-3-3.7
		c0,0,0.2-1.5,1.2-2c0,0,1.4-0.9,2.7,0.2c0,0,4.3,4.2,6,7.1c0,0,4.6,6.5,2.3,12.1c0,0-2.7,6.3-11.2,6.8c0,0-2.2,0.1-5.2-1.8L38,60.7
		c0,0-2-1.5-0.8-3.1c0,0,1.2-2,3.9-0.4L45.5,59.5z"/>
</g>
</svg>
