<?xml version="1.0" encoding="utf-8"?>
<!-- Generator: Adobe Illustrator 19.2.1, SVG Export Plug-In . SVG Version: 6.00 Build 0)  -->
<svg version="1.1" id="Capa_1" xmlns="http://www.w3.org/2000/svg" xmlns:xlink="http://www.w3.org/1999/xlink" x="0px" y="0px"
	 viewBox="0 0 80 80" style="enable-background:new 0 0 80 80;" xml:space="preserve">
<style type="text/css">
	.st0{fill:#F1900E;}
	.st1{fill:#002A57;}
	.st2{fill:#F1900E;stroke:#002A57;stroke-width:2;stroke-miterlimit:10;}
</style>
<g>
	<path class="st0" d="M48.1,1.1H11.6c-2.1,0-3.8,1.7-3.8,3.8v69.6c0,2.1,1.7,3.8,3.8,3.8h36.5c2.1,0,3.8-1.7,3.8-3.8V4.9
		C51.9,2.8,50.2,1.1,48.1,1.1z"/>
	<g id="XMLID_3_">
		<g>
			<rect x="10.3" y="8.3" class="st1" width="39.2" height="58.7"/>
		</g>
		<g>
		</g>
	</g>
	<g id="XMLID_2_">
		<g>
			<circle class="st1" cx="29.9" cy="72.7" r="3.8"/>
		</g>
		<g>
		</g>
	</g>
	<g id="XMLID_1_">
		<g>
			<path class="st1" d="M35.7,3.5c0.7,0,1.2,0.5,1.2,1.2s-0.5,1.2-1.2,1.2H24c-0.7,0-1.2-0.5-1.2-1.2s0.5-1.2,1.2-1.2H35.7z"/>
		</g>
		<g>
		</g>
	</g>
	<g>
		<path class="st0" d="M36.7,30.7h-0.8v-3.8c-0.1-2.2-1.6-3.7-1.6-3.7c-1.4-1.7-3.6-1.7-4.4-1.7s-3-0.1-4.4,1.7c0,0-1.5,1.5-1.6,3.7
			v3.8h-0.7c-1.2,0-2.2,1-2.2,2.2v10.5c0,1.2,1,2.2,2.2,2.2h13.6c1.2,0,2.2-1,2.2-2.2V32.9C38.9,31.7,37.9,30.7,36.7,30.7z
			 M26.2,30.7v-2.9c0,0,0-3.9,3.6-3.9s3.6,3.9,3.6,3.9v2.9H26.2z"/>
	</g>
	<path class="st2" d="M47.9,67.6l0.1-0.2L27.7,43.1c0,0-2.2-2.6,0.3-4.9c0,0,2.2-1.8,4.5,1l13.8,17.1l0.1-0.1l-5-6.1
		c0,0-0.6-2.6,1.3-3.8c0,0,2.8-2,4.9,0.6l4.7,5.9l0.1-0.1l-4.7-5.9c0,0,0.3-2,1.6-2.7c0,0,2.6-1.7,4.6,0.7l4.3,5.4l0.1-0.1L54,44.9
		c0,0,0.3-2.1,1.7-2.9c0,0,1.9-1.3,3.7,0.2c0,0,6.1,6,8.5,10.1c0,0,6.6,9.2,3.2,17.1c0,0-3.8,8.9-15.8,9.6c0,0-3.2,0.1-7.3-2.5
		l-11.1-7.2c0,0-2.8-2.2-1.1-4.4c0,0,1.6-2.9,5.5-0.6L47.9,67.6z"/>
</g>
</svg>
