<?xml version="1.0" encoding="utf-8"?>
<!-- Generator: Adobe Illustrator 19.2.1, SVG Export Plug-In . SVG Version: 6.00 Build 0)  -->
<svg version="1.1" id="Capa_1" xmlns="http://www.w3.org/2000/svg" xmlns:xlink="http://www.w3.org/1999/xlink" x="0px" y="0px"
	 viewBox="0 0 80 80" style="enable-background:new 0 0 80 80;" xml:space="preserve">
<style type="text/css">
	.st0{fill:#CCD2D6;}
	.st1{fill:#CCD2D6;stroke:#F2F3F3;stroke-width:1.7728;stroke-miterlimit:10;}
</style>
<g>
	<path class="st0" d="M49.4,1.8H14.2c-2,0-3.7,1.6-3.7,3.7v67.2c0,2,1.6,3.7,3.7,3.7h35.1c2,0,3.7-1.6,3.7-3.7V5.4
		C53.3,3.4,51.4,1.8,49.4,1.8z M26.2,4.1h11.3c0.7,0,1.2,0.5,1.2,1.2s-0.5,1.2-1.2,1.2H26.2C25.5,6.5,25,6,25,5.3
		C25.1,4.6,25.5,4.1,26.2,4.1z M31.9,74.6c-2,0-3.7-1.6-3.7-3.7c0-2,1.6-3.7,3.7-3.7c2,0,3.7,1.6,3.7,3.7C35.6,73,34,74.6,31.9,74.6
		z M50.7,65.4H12.9V8.8h37.9V65.4z"/>
	<g>
		<path class="st0" d="M38.5,30.4h-0.8v-3.7c-0.1-2-1.6-3.5-1.6-3.5c-1.4-1.6-3.4-1.6-4.2-1.6c-0.7,0-2.9,0-4.2,1.6
			c0,0-1.5,1.5-1.6,3.5v3.7h-0.5c-1.2,0-2.2,1-2.2,2.2v10.1c0,1.2,1,2.2,2.2,2.2h13.1c1.2,0,2.2-1,2.2-2.2V32.5
			C40.5,31.3,39.7,30.4,38.5,30.4z M28.3,30.4v-2.7c0,0,0-3.7,3.5-3.7s3.5,3.7,3.5,3.7v2.7H28.3z"/>
	</g>
	<path class="st1" d="M49.4,66L49.4,66L29.9,42.3c0,0-2.2-2.5,0.3-4.8c0,0,2.2-1.8,4.4,1L47.9,55H48l-4.9-5.9c0,0-0.5-2.5,1.2-3.7
		c0,0,2.7-1.9,4.8,0.5l4.6,5.6h0.1L49.2,46c0,0,0.3-1.9,1.6-2.6c0,0,2.5-1.6,4.4,0.7l4.2,5.2l0.1-0.1l-4.1-5c0,0,0.3-2,1.6-2.7
		c0,0,1.9-1.2,3.7,0.3c0,0,5.9,5.7,8.2,9.7c0,0,6.3,8.9,3.1,16.5c0,0-3.7,8.6-15.3,9.3c0,0-3,0.1-7.1-2.5l-10.6-6.9
		c0,0-2.7-2-1.1-4.2c0,0,1.6-2.7,5.3-0.5L49.4,66z"/>
</g>
</svg>
