<?xml version="1.0" encoding="utf-8"?>
<!-- Generator: Adobe Illustrator 19.2.1, SVG Export Plug-In . SVG Version: 6.00 Build 0)  -->
<svg version="1.1" id="Capa_1" xmlns="http://www.w3.org/2000/svg" xmlns:xlink="http://www.w3.org/1999/xlink" x="0px" y="0px"
	 viewBox="0 0 80 80" style="enable-background:new 0 0 80 80;" xml:space="preserve">
<style type="text/css">
	.st0{fill:#F1900E;}
	.st1{fill:#002A57;}
	.st2{fill:none;stroke:#F1900E;stroke-width:0.668;stroke-miterlimit:10;}
</style>
<g>
	<path class="st0" d="M48.5,1.2H12C9.9,1.2,8.1,2.9,8.1,5v69.7c0,2.1,1.7,3.8,3.8,3.8h36.5c2.1,0,3.8-1.7,3.8-3.8V5
		C52.4,2.9,50.6,1.2,48.5,1.2z"/>
	<g id="XMLID_5_">
		<g>
			<path class="st1" d="M30.2,69.1c2.1,0,3.9,1.7,3.9,3.9c0,2.1-1.7,3.8-3.9,3.8c-2.1,0-3.9-1.7-3.9-3.8
				C26.4,70.8,28.1,69.1,30.2,69.1z"/>
		</g>
		<g>
		</g>
	</g>
	<g id="XMLID_4_">
		<g>
			<path class="st1" d="M36.1,3.6c0.7,0,1.2,0.6,1.2,1.2S36.8,6,36.1,6H24.4c-0.7,0-1.2-0.6-1.2-1.2s0.6-1.2,1.2-1.2H36.1z"/>
		</g>
		<g>
		</g>
	</g>
	<g id="XMLID_3_">
		<g>
			<rect x="10.6" y="8.4" class="st1" width="39.3" height="58.8"/>
		</g>
		<g>
		</g>
	</g>
	<g>
		<path class="st1" d="M65.3,43H45.8c0,0-1.5-2-0.2-5.7h19.9C65.5,37.3,66.7,40.1,65.3,43z"/>
		<path class="st0" d="M23.4,38.8v3h-2.1c0,0-0.4-0.3-0.4-0.9c0-0.6,0-1.4,0-1.4s0.2-0.6,0.6-0.6C21.9,38.8,23.4,38.8,23.4,38.8z"/>
		<ellipse class="st2" cx="19.3" cy="40.4" rx="3.3" ry="3.6"/>
		<rect x="48.5" y="39.1" class="st0" width="1.5" height="2.3"/>
		<rect x="50.9" y="39.1" class="st0" width="1.5" height="2.3"/>
		<rect x="53.4" y="39.1" class="st0" width="1.5" height="2.3"/>
		<rect x="56.4" y="39.1" class="st0" width="1.5" height="2.3"/>
		<rect x="58.9" y="39.1" class="st0" width="1.5" height="2.3"/>
		<rect x="61.4" y="39.1" class="st0" width="1.5" height="2.3"/>
		<path class="st0" d="M69.3,33.7c-0.2-2-2.2-1.7-2.2-1.7H42.7c-0.3,0-0.5-0.1-1-0.4v0c-1.9-1.6-4.4-2.6-7.1-2.6
			c-6.1,0-11,4.9-11,11c0,6.1,4.9,11,11,11c2.7,0,5.1-1,7.1-2.6c0.2-0.2,0.4-0.4,1-0.4c0,0,22.6,0,24.4,0c1.8,0,2.2-1.8,2.2-1.8
			C70.6,40.1,69.5,35.7,69.3,33.7z M65.3,43H45.8c0,0-1.5-2-0.2-5.7h19.9C65.5,37.3,66.7,40.1,65.3,43z"/>
		<g id="XMLID_2_">
			<g>
				<path class="st1" d="M41.1,36.9c-0.6,1.1-0.6,5.7,0,6.8c-1.3,2.4-3.8,4.3-6.7,4.3c-4.2,0-7.6-3.4-7.6-7.7s3.4-7.7,7.6-7.7
					C37.3,32.6,39.8,34.5,41.1,36.9z"/>
			</g>
			<g>
			</g>
		</g>
		<g id="XMLID_1_">
			<g>
				<path class="st1" d="M64.6,44.3c0.6,0,1.1,0.5,1.1,1.1c0,0.6-0.5,1.1-1.1,1.1h-9c-0.6,0-1.1-0.5-1.1-1.1c0-0.6,0.5-1.1,1.1-1.1
					H64.6z"/>
			</g>
			<g>
			</g>
		</g>
		<g>
			<path class="st0" d="M36.9,38.7h-0.3v-1.5c0-0.8-0.6-1.4-0.6-1.4c-0.5-0.7-1.4-0.6-1.7-0.6c-0.3,0-1.1,0-1.7,0.6
				c0,0-0.6,0.6-0.6,1.4v1.5h-0.3c-0.5,0-0.9,0.4-0.9,0.9v4c0,0.5,0.4,0.9,0.9,0.9h5.2c0.5,0,0.9-0.4,0.9-0.9v-4
				C37.7,39.1,37.3,38.7,36.9,38.7z M32.8,38.7v-1.1c0,0,0-1.5,1.4-1.5c1.4,0,1.4,1.5,1.4,1.5v1.1H32.8z"/>
		</g>
	</g>
</g>
</svg>
