<?xml version="1.0" encoding="utf-8"?>
<!-- Generator: Adobe Illustrator 19.2.1, SVG Export Plug-In . SVG Version: 6.00 Build 0)  -->
<svg version="1.1" id="Layer_1" xmlns="http://www.w3.org/2000/svg" xmlns:xlink="http://www.w3.org/1999/xlink" x="0px" y="0px"
	 viewBox="0 0 250 250" style="enable-background:new 0 0 250 250;" xml:space="preserve">
<style type="text/css">
	.st0{fill:#002A57;}
	.st1{display:none;fill:none;stroke:#34B4CF;stroke-width:3;stroke-miterlimit:10;}
	.st2{enable-background:new    ;}
	.st3{fill:#F2F3F3;}
</style>
<circle class="st0" cx="125" cy="125" r="125"/>
<circle class="st1" cx="125" cy="125" r="54.1"/>
<g class="st2">
	<path class="st3" d="M99.1,125c0-9.4,1-16.9,2.9-22.7c1.9-5.7,4.8-10.1,8.6-13.2c3.8-3.1,8.6-4.7,14.4-4.7c4.3,0,8,0.9,11.2,2.6
		s5.9,4.2,8,7.4c2.1,3.2,3.7,7.2,4.9,11.8c1.2,4.6,1.8,10.9,1.8,18.8c0,9.3-1,16.8-2.9,22.6c-1.9,5.7-4.8,10.1-8.6,13.3
		c-3.8,3.1-8.6,4.7-14.4,4.7c-7.7,0-13.7-2.7-18-8.2C101.7,150.7,99.1,139.9,99.1,125z M109.1,125c0,13,1.5,21.7,4.6,26
		s6.8,6.5,11.3,6.5s8.2-2.2,11.3-6.5c3-4.3,4.6-13,4.6-26c0-13.1-1.5-21.8-4.6-26c-3.1-4.3-6.9-6.4-11.4-6.4
		c-4.5,0-8.1,1.9-10.7,5.7C110.8,103.1,109.1,112,109.1,125z"/>
</g>
</svg>
