<?xml version="1.0" encoding="utf-8"?>
<!-- Generator: Adobe Illustrator 19.2.1, SVG Export Plug-In . SVG Version: 6.00 Build 0)  -->
<svg version="1.1" id="Layer_1" xmlns="http://www.w3.org/2000/svg" xmlns:xlink="http://www.w3.org/1999/xlink" x="0px" y="0px"
	 viewBox="0 0 250 250" style="enable-background:new 0 0 250 250;" xml:space="preserve">
<style type="text/css">
	.st0{display:none;fill:#34B4CF;}
	.st1{fill:#002A57;}
	.st2{enable-background:new    ;}
</style>
<circle class="st0" cx="125" cy="125" r="54.1"/>
<path class="st1" d="M125,250C56.1,250,0,193.9,0,125S56.1,0,125,0s125,56.1,125,125S193.9,250,125,250z M125,3.1
	C57.8,3.1,3.1,57.8,3.1,125S57.8,246.9,125,246.9S246.9,192.2,246.9,125S192.2,3.1,125,3.1z"/>
<g class="st2">
	<path class="st1" d="M131.9,164.2v-18.8h-34v-8.8l35.8-50.8h7.9v50.8h10.6v8.8h-10.6v18.8H131.9z M131.9,136.6v-35.3l-24.5,35.3
		H131.9z"/>
</g>
</svg>
