<?xml version="1.0" encoding="utf-8"?>
<!-- Generator: Adobe Illustrator 19.2.1, SVG Export Plug-In . SVG Version: 6.00 Build 0)  -->
<svg version="1.1" id="Layer_1" xmlns="http://www.w3.org/2000/svg" xmlns:xlink="http://www.w3.org/1999/xlink" x="0px" y="0px"
	 viewBox="0 0 250 250" style="enable-background:new 0 0 250 250;" xml:space="preserve">
<style type="text/css">
	.st0{fill:#002A57;}
	.st1{display:none;fill:none;stroke:#34B4CF;stroke-width:3;stroke-miterlimit:10;}
	.st2{enable-background:new    ;}
	.st3{fill:#F2F3F3;}
</style>
<circle class="st0" cx="125" cy="125" r="125"/>
<circle class="st1" cx="125" cy="125" r="54.1"/>
<g class="st2">
	<path class="st3" d="M99,143.2l9.7-1.3c1.1,5.5,3,9.5,5.7,11.9s6,3.7,9.8,3.7c4.6,0,8.5-1.6,11.6-4.8c3.2-3.2,4.7-7.1,4.7-11.8
		c0-4.5-1.5-8.2-4.4-11.1c-2.9-2.9-6.6-4.4-11.2-4.4c-1.8,0-4.1,0.4-6.9,1.1l1.1-8.6c0.6,0.1,1.2,0.1,1.6,0.1
		c4.2,0,7.9-1.1,11.2-3.2s5-5.5,5-10c0-3.6-1.2-6.5-3.6-8.9c-2.4-2.3-5.5-3.5-9.4-3.5c-3.8,0-7,1.2-9.5,3.6s-4.2,6-4.9,10.7L100,105
		c1.2-6.5,3.9-11.6,8.1-15.2s9.5-5.4,15.8-5.4c4.3,0,8.3,0.9,12,2.8c3.6,1.9,6.4,4.4,8.4,7.6s2.9,6.6,2.9,10.2
		c0,3.4-0.9,6.6-2.8,9.4c-1.8,2.8-4.6,5.1-8.2,6.7c4.7,1.1,8.3,3.3,10.9,6.7c2.6,3.4,3.9,7.7,3.9,12.8c0,6.9-2.5,12.8-7.6,17.6
		s-11.4,7.2-19.2,7.2c-7,0-12.8-2.1-17.4-6.2S99.7,149.8,99,143.2z"/>
</g>
</svg>
