<?xml version="1.0" encoding="utf-8"?>
<!-- Generator: Adobe Illustrator 19.2.1, SVG Export Plug-In . SVG Version: 6.00 Build 0)  -->
<svg version="1.1" id="Layer_1" xmlns="http://www.w3.org/2000/svg" xmlns:xlink="http://www.w3.org/1999/xlink" x="0px" y="0px"
	 viewBox="0 0 250 250" style="enable-background:new 0 0 250 250;" xml:space="preserve">
<style type="text/css">
	.st0{display:none;fill:#34B4CF;}
	.st1{fill:#002A57;}
	.st2{enable-background:new    ;}
</style>
<circle class="st0" cx="125" cy="125" r="54.1"/>
<path class="st1" d="M125,250C56.1,250,0,193.9,0,125S56.1,0,125,0s125,56.1,125,125S193.9,250,125,250z M125,3.2
	C57.8,3.2,3.2,57.8,3.2,125S57.8,246.8,125,246.8S246.8,192.2,246.8,125S192.2,3.2,125,3.2z"/>
<g class="st2">
	<path class="st1" d="M131.4,164.3h-9.6V103c-2.3,2.2-5.4,4.4-9.1,6.6c-3.8,2.2-7.1,3.9-10.1,5v-9.3c5.4-2.5,10.1-5.6,14.1-9.2
		s6.9-7.1,8.6-10.5h6.2v78.7H131.4z"/>
</g>
</svg>
