<?xml version="1.0" encoding="utf-8"?>
<!-- Generator: Adobe Illustrator 19.2.1, SVG Export Plug-In . SVG Version: 6.00 Build 0)  -->
<svg version="1.1" id="Layer_1" xmlns="http://www.w3.org/2000/svg" xmlns:xlink="http://www.w3.org/1999/xlink" x="0px" y="0px"
	 viewBox="0 0 250 250" style="enable-background:new 0 0 250 250;" xml:space="preserve">
<style type="text/css">
	.st0{display:none;fill:#34B4CF;}
	.st1{fill:#002A57;}
	.st2{enable-background:new    ;}
</style>
<circle class="st0" cx="125" cy="125" r="54.1"/>
<path class="st1" d="M125,250C56.1,250,0,193.9,0,125S56.1,0,125,0s125,56.1,125,125S193.9,250,125,250z M125,3.1
	C57.8,3.1,3.1,57.8,3.1,125S57.8,246.9,125,246.9S246.9,192.2,246.9,125S192.2,3.1,125,3.1z"/>
<g class="st2">
	<path class="st1" d="M114.1,121.2c-4-1.5-7-3.5-8.9-6.3c-1.9-2.7-2.9-6-2.9-9.7c0-5.7,2-10.5,6.1-14.4S118,85,124.8,85
		c6.8,0,12.4,2,16.5,6c4.2,4,6.3,8.8,6.3,14.5c0,3.6-1,6.8-2.9,9.5s-4.8,4.8-8.7,6.2c4.8,1.6,8.5,4.1,11,7.6s3.8,7.7,3.8,12.5
		c0,6.7-2.4,12.3-7.1,16.9c-4.7,4.6-11,6.8-18.7,6.8s-14-2.3-18.7-6.9c-4.7-4.6-7.1-10.3-7.1-17.1c0-5.1,1.3-9.4,3.9-12.8
		C105.6,124.8,109.3,122.4,114.1,121.2z M109.1,141.1c0,2.7,0.6,5.4,2,8c1.3,2.6,3.2,4.6,5.8,6c2.6,1.4,5.3,2.1,8.3,2.1
		c4.6,0,8.4-1.5,11.4-4.4c3-3,4.5-6.7,4.5-11.3s-1.5-8.5-4.6-11.5s-6.9-4.5-11.6-4.5c-4.5,0-8.3,1.5-11.3,4.5
		C110.6,132.8,109.1,136.6,109.1,141.1z M112.2,104.9c0,3.7,1.2,6.7,3.6,9.1s5.5,3.5,9.3,3.5c3.7,0,6.7-1.2,9.1-3.5s3.6-5.2,3.6-8.6
		c0-3.5-1.2-6.5-3.7-8.9c-2.4-2.4-5.5-3.6-9.1-3.6c-3.7,0-6.7,1.2-9.1,3.5C113.4,98.8,112.2,101.6,112.2,104.9z"/>
</g>
</svg>
