<?xml version="1.0" encoding="utf-8"?>
<!-- Generator: Adobe Illustrator 19.2.1, SVG Export Plug-In . SVG Version: 6.00 Build 0)  -->
<svg version="1.1" id="Layer_1" xmlns="http://www.w3.org/2000/svg" xmlns:xlink="http://www.w3.org/1999/xlink" x="0px" y="0px"
	 viewBox="0 0 250 250" style="enable-background:new 0 0 250 250;" xml:space="preserve">
<style type="text/css">
	.st0{display:none;fill:#34B4CF;}
	.st1{fill:#002A57;}
	.st2{enable-background:new    ;}
</style>
<circle class="st0" cx="125" cy="125" r="54.1"/>
<path class="st1" d="M125,250C56.1,250,0,193.9,0,125S56.1,0,125,0s125,56.1,125,125S193.9,250,125,250z M125,3.1
	C57.8,3.1,3.1,57.8,3.1,125S57.8,246.9,125,246.9S246.9,192.2,246.9,125S192.2,3.1,125,3.1z"/>
<g class="st2">
	<path class="st1" d="M149.5,104.5l-9.6,0.7c-0.9-3.8-2.1-6.5-3.6-8.2c-2.6-2.7-5.8-4.1-9.6-4.1c-3.1,0-5.8,0.9-8.1,2.6
		c-3,2.2-5.4,5.4-7.2,9.7c-1.7,4.2-2.7,10.3-2.7,18.1c2.3-3.5,5.2-6.2,8.5-7.9c3.4-1.7,6.9-2.6,10.5-2.6c6.4,0,11.9,2.4,16.4,7.1
		s6.8,10.8,6.8,18.3c0,4.9-1.1,9.5-3.2,13.7c-2.1,4.2-5,7.5-8.7,9.7s-7.9,3.4-12.6,3.4c-8,0-14.6-3-19.6-8.9
		c-5.1-5.9-7.6-15.6-7.6-29.2c0-15.2,2.8-26.2,8.4-33.1c4.9-6,11.5-9,19.7-9c6.2,0,11.2,1.7,15.2,5.2
		C146.3,93.6,148.7,98.4,149.5,104.5z M110.2,138.3c0,3.3,0.7,6.5,2.1,9.5s3.4,5.3,5.9,6.9c2.5,1.6,5.2,2.4,8,2.4
		c4.1,0,7.6-1.6,10.5-4.9c2.9-3.3,4.4-7.7,4.4-13.4c0-5.4-1.4-9.7-4.3-12.8c-2.9-3.1-6.5-4.7-10.9-4.7s-8,1.6-11.1,4.7
		C111.7,129.1,110.2,133.2,110.2,138.3z"/>
</g>
</svg>
