<?xml version="1.0" encoding="utf-8"?>
<!-- Generator: Adobe Illustrator 19.2.1, SVG Export Plug-In . SVG Version: 6.00 Build 0)  -->
<svg version="1.1" id="Layer_1" xmlns="http://www.w3.org/2000/svg" xmlns:xlink="http://www.w3.org/1999/xlink" x="0px" y="0px"
	 viewBox="0 0 250 250" style="enable-background:new 0 0 250 250;" xml:space="preserve">
<style type="text/css">
	.st0{display:none;fill:#34B4CF;}
	.st1{fill:#002A57;}
	.st2{fill:#F2F3F3;}
</style>
<circle class="st0" cx="125" cy="125" r="54.1"/>
<path class="st1" d="M70.7,62l-55.9,49.3c-8.7,7.7-8.6,18.9,0.2,26.5L70.7,186c5.2,4.5,12.7,7.1,20.7,7.1h121.5
	c15.1,0,27.3-9.1,27.3-20.4V75.1c0-11.3-12.2-20.4-27.3-20.4H91.5C83.5,54.7,75.9,57.4,70.7,62z"/>
<g>
	<path class="st2" d="M141.1,123l-25.7-36h12.7l19.5,28.3L167.1,87h12.6L154,123l27,37.8h-12.7l-20.7-29.9l-20.9,29.9H114L141.1,123
		z"/>
</g>
</svg>
