<?xml version="1.0" encoding="utf-8"?>
<!-- Generator: Adobe Illustrator 19.2.1, SVG Export Plug-In . SVG Version: 6.00 Build 0)  -->
<svg version="1.1" id="Layer_1" xmlns="http://www.w3.org/2000/svg" xmlns:xlink="http://www.w3.org/1999/xlink" x="0px" y="0px"
	 viewBox="0 0 250 250" style="enable-background:new 0 0 250 250;" xml:space="preserve">
<style type="text/css">
	.st0{display:none;fill:#34B4CF;}
	.st1{fill:#002A57;}
	.st2{enable-background:new    ;}
</style>
<circle class="st0" cx="125" cy="125" r="54.1"/>
<path class="st1" d="M125,250C56.1,250,0,193.9,0,125S56.1,0,125,0s125,56.1,125,125S193.9,250,125,250z M125,3.1
	C57.8,3.1,3.1,57.8,3.1,125S57.8,246.9,125,246.9S246.9,192.2,246.9,125S192.2,3.1,125,3.1z"/>
<g class="st2">
	<path class="st1" d="M99,142.5l10.1-0.9c0.7,4.9,2.5,8.6,5.2,11.1s6,3.7,9.9,3.7c4.6,0,8.6-1.7,11.8-5.2s4.8-8.1,4.8-13.9
		c0-5.5-1.5-9.8-4.6-13s-7.1-4.8-12.1-4.8c-3.1,0-5.9,0.7-8.4,2.1s-4.5,3.2-5.9,5.5l-9-1.2l7.6-40.3h39v9.2H116l-4.2,21.1
		c4.7-3.3,9.6-4.9,14.8-4.9c6.8,0,12.6,2.4,17.3,7.1s7.1,10.8,7.1,18.3c0,7.1-2.1,13.2-6.2,18.4c-5,6.3-11.9,9.5-20.6,9.5
		c-7.1,0-12.9-2-17.5-6C102.2,154.3,99.7,149.1,99,142.5z"/>
</g>
</svg>
