<?xml version="1.0" encoding="utf-8"?>
<!-- Generator: Adobe Illustrator 19.2.1, SVG Export Plug-In . SVG Version: 6.00 Build 0)  -->
<svg version="1.1" id="Layer_1" xmlns="http://www.w3.org/2000/svg" xmlns:xlink="http://www.w3.org/1999/xlink" x="0px" y="0px"
	 viewBox="0 0 250 250" style="enable-background:new 0 0 250 250;" xml:space="preserve">
<style type="text/css">
	.st0{display:none;fill:#34B4CF;}
	.st1{fill:#002A57;}
	.st2{enable-background:new    ;}
</style>
<circle class="st0" cx="125" cy="125" r="54.1"/>
<path class="st1" d="M125,250C56,250,0,194,0,125S56,0,125,0s125,56,125,125S194,250,125,250z M125,3.2C57.8,3.2,3.2,57.8,3.2,125
	S57.8,246.8,125,246.8S246.8,192.2,246.8,125S192.2,3.2,125,3.2z"/>
<g class="st2">
	<path class="st1" d="M100.7,145.6l9.2-0.9c0.8,4.3,2.3,7.5,4.5,9.5s5,2.9,8.5,2.9c3,0,5.6-0.7,7.8-2c2.2-1.4,4.1-3.2,5.5-5.4
		c1.4-2.3,2.6-5.3,3.6-9.2c1-3.8,1.4-7.8,1.4-11.8c0-0.4,0-1.1-0.1-1.9c-1.9,3.1-4.6,5.6-7.9,7.5c-3.3,1.9-6.9,2.9-10.8,2.9
		c-6.5,0-12-2.4-16.5-7.1c-4.5-4.7-6.7-10.9-6.7-18.6c0-7.9,2.3-14.3,7-19.2c4.7-4.8,10.6-7.3,17.6-7.3c5.1,0,9.8,1.4,14,4.1
		s7.4,6.7,9.6,11.7c2.2,5.1,3.3,12.4,3.3,22.1c0,10-1.1,18-3.3,23.9s-5.4,10.5-9.7,13.6s-9.3,4.7-15.1,4.7c-6.1,0-11.1-1.7-15-5.1
		C103.8,156.5,101.5,151.7,100.7,145.6z M140.1,111c0-5.5-1.5-9.9-4.4-13.2c-2.9-3.2-6.5-4.9-10.6-4.9c-4.3,0-8,1.7-11.2,5.2
		s-4.8,8-4.8,13.6c0,5,1.5,9,4.5,12.2c3,3.1,6.7,4.7,11.1,4.7c4.5,0,8.1-1.6,11-4.7C138.6,120.8,140.1,116.5,140.1,111z"/>
</g>
</svg>
