<?xml version="1.0" encoding="utf-8"?>
<!-- Generator: Adobe Illustrator 19.2.1, SVG Export Plug-In . SVG Version: 6.00 Build 0)  -->
<svg version="1.1" id="Layer_1" xmlns="http://www.w3.org/2000/svg" xmlns:xlink="http://www.w3.org/1999/xlink" x="0px" y="0px"
	 viewBox="0 0 250 250" style="enable-background:new 0 0 250 250;" xml:space="preserve">
<style type="text/css">
	.st0{fill:#002A57;}
	.st1{display:none;fill:none;stroke:#34B4CF;stroke-width:3;stroke-miterlimit:10;}
	.st2{enable-background:new    ;}
	.st3{fill:#F2F3F3;}
</style>
<circle class="st0" cx="125" cy="125" r="125"/>
<circle class="st1" cx="125" cy="125" r="54.1"/>
<g class="st2">
	<path class="st3" d="M98.7,142.7l10.2-0.9c0.8,5,2.5,8.7,5.3,11.2s6.1,3.8,10,3.8c4.7,0,8.7-1.8,11.9-5.3c3.3-3.5,4.9-8.2,4.9-14.1
		c0-5.6-1.6-9.9-4.7-13.2c-3.1-3.2-7.2-4.8-12.3-4.8c-3.1,0-6,0.7-8.5,2.1s-4.5,3.3-6,5.6l-9.2-1.2l7.7-40.8h39.5v9.3h-31.7
		l-4.3,21.3c4.8-3.3,9.8-5,15-5c6.9,0,12.8,2.4,17.5,7.2c4.8,4.8,7.1,11,7.1,18.5c0,7.2-2.1,13.4-6.3,18.6c-5.1,6.4-12,9.6-20.8,9.6
		c-7.2,0-13.1-2-17.7-6.1C101.9,154.7,99.3,149.4,98.7,142.7z"/>
</g>
</svg>
