<?xml version="1.0" encoding="utf-8"?>
<!-- Generator: Adobe Illustrator 19.2.1, SVG Export Plug-In . SVG Version: 6.00 Build 0)  -->
<svg version="1.1" id="Layer_1" xmlns="http://www.w3.org/2000/svg" xmlns:xlink="http://www.w3.org/1999/xlink" x="0px" y="0px"
	 viewBox="0 0 250 250" style="enable-background:new 0 0 250 250;" xml:space="preserve">
<style type="text/css">
	.st0{display:none;fill:#34B4CF;}
	.st1{fill:#002A57;}
	.st2{enable-background:new    ;}
</style>
<circle class="st0" cx="125" cy="125" r="54.1"/>
<path class="st1" d="M125,250C56.1,250,0,193.9,0,125S56.1,0,125,0s125,56.1,125,125S193.9,250,125,250z M125,3.1
	C57.8,3.1,3.1,57.8,3.1,125S57.8,246.9,125,246.9S246.9,192.2,246.9,125S192.2,3.1,125,3.1z"/>
<g class="st2">
	<path class="st1" d="M99.3,143l9.6-1.3c1.1,5.5,3,9.4,5.6,11.8c2.7,2.4,5.9,3.6,9.7,3.6c4.5,0,8.4-1.6,11.5-4.7s4.7-7,4.7-11.7
		c0-4.4-1.4-8.1-4.3-10.9s-6.6-4.3-11-4.3c-1.8,0-4.1,0.4-6.8,1.1l1.1-8.4c0.6,0.1,1.2,0.1,1.6,0.1c4.1,0,7.8-1.1,11.1-3.2
		s4.9-5.4,4.9-9.9c0-3.5-1.2-6.5-3.6-8.8c-2.4-2.3-5.5-3.5-9.3-3.5c-3.7,0-6.9,1.2-9.4,3.5c-2.5,2.4-4.1,5.9-4.8,10.6l-9.6-1.7
		c1.2-6.5,3.9-11.5,8-15c4.2-3.5,9.4-5.3,15.6-5.3c4.3,0,8.2,0.9,11.8,2.8c3.6,1.8,6.4,4.3,8.3,7.5c1.9,3.2,2.9,6.5,2.9,10.1
		c0,3.4-0.9,6.5-2.7,9.3s-4.5,5-8.1,6.6c4.6,1.1,8.2,3.3,10.8,6.7c2.6,3.4,3.9,7.6,3.9,12.6c0,6.8-2.5,12.6-7.5,17.4
		c-5,4.8-11.3,7.1-18.9,7.1c-6.9,0-12.6-2-17.1-6.1C102.6,154.8,100,149.5,99.3,143z"/>
</g>
</svg>
