<?xml version="1.0" encoding="utf-8"?>
<!-- Generator: Adobe Illustrator 19.2.1, SVG Export Plug-In . SVG Version: 6.00 Build 0)  -->
<svg version="1.1" id="Layer_1" xmlns="http://www.w3.org/2000/svg" xmlns:xlink="http://www.w3.org/1999/xlink" x="0px" y="0px"
	 viewBox="0 0 250 250" style="enable-background:new 0 0 250 250;" xml:space="preserve">
<style type="text/css">
	.st0{display:none;fill:#34B4CF;}
	.st1{fill:#002A57;}
</style>
<circle class="st0" cx="125" cy="125" r="54.1"/>
<path class="st1" d="M125,250C56.1,250,0,193.9,0,125S56.1,0,125,0s125,56.1,125,125S193.9,250,125,250z M125,3.1
	C57.8,3.1,3.1,57.8,3.1,125S57.8,246.9,125,246.9S246.9,192.2,246.9,125S192.2,3.1,125,3.1z"/>
<g>
	<path class="st1" d="M150.9,155.1v9.3H99.1c-0.1-2.3,0.3-4.5,1.1-6.7c1.3-3.5,3.4-7,6.3-10.4s7.1-7.4,12.6-11.9
		c8.5-7,14.3-12.5,17.3-16.6s4.5-7.9,4.5-11.6c0-3.8-1.4-7-4.1-9.7c-2.7-2.6-6.3-3.9-10.7-3.9c-4.6,0-8.3,1.4-11.1,4.2
		c-2.8,2.8-4.2,6.6-4.2,11.6l-9.9-1c0.7-7.4,3.2-13,7.6-16.9s10.4-5.8,17.8-5.8c7.5,0,13.5,2.1,17.9,6.3c4.4,4.2,6.6,9.3,6.6,15.5
		c0,3.1-0.6,6.2-1.9,9.3c-1.3,3-3.4,6.2-6.4,9.6c-3,3.4-7.9,8-14.8,13.8c-5.8,4.8-9.5,8.1-11.1,9.9c-1.6,1.7-3,3.5-4.1,5.2h38.4
		V155.1z"/>
</g>
</svg>
