<?xml version="1.0" encoding="utf-8"?>
<!-- Generator: Adobe Illustrator 19.2.1, SVG Export Plug-In . SVG Version: 6.00 Build 0)  -->
<svg version="1.1" id="Layer_1" xmlns="http://www.w3.org/2000/svg" xmlns:xlink="http://www.w3.org/1999/xlink" x="0px" y="0px"
	 viewBox="0 0 250 250" style="enable-background:new 0 0 250 250;" xml:space="preserve">
<style type="text/css">
	.st0{fill:#002A57;}
	.st1{display:none;fill:none;stroke:#34B4CF;stroke-width:3;stroke-miterlimit:10;}
	.st2{enable-background:new    ;}
	.st3{fill:#F2F3F3;}
</style>
<circle class="st0" cx="125" cy="125" r="125"/>
<circle class="st1" cx="125" cy="125" r="54.1"/>
<g class="st2">
	<path class="st3" d="M114,121.1c-4-1.5-7-3.6-9-6.3c-1.9-2.7-2.9-6-2.9-9.9c0-5.8,2.1-10.6,6.2-14.6c4.2-3.9,9.7-5.9,16.6-5.9
		c6.9,0,12.5,2,16.7,6s6.3,8.9,6.3,14.7c0,3.7-1,6.9-2.9,9.6s-4.9,4.8-8.8,6.3c4.9,1.6,8.6,4.2,11.1,7.7c2.5,3.5,3.8,7.8,3.8,12.7
		c0,6.8-2.4,12.5-7.2,17.1s-11.1,6.9-19,6.9c-7.8,0-14.2-2.3-19-7c-4.8-4.6-7.2-10.4-7.2-17.4c0-5.2,1.3-9.5,3.9-13
		C105.4,124.8,109.1,122.4,114,121.1z M108.9,141.3c0,2.8,0.7,5.5,2,8.1s3.3,4.6,5.9,6s5.4,2.1,8.4,2.1c4.7,0,8.5-1.5,11.5-4.5
		s4.5-6.8,4.5-11.4c0-4.7-1.6-8.6-4.7-11.6c-3.1-3.1-7-4.6-11.7-4.6c-4.6,0-8.4,1.5-11.4,4.5C110.4,132.9,108.9,136.7,108.9,141.3z
		 M112,104.6c0,3.8,1.2,6.8,3.6,9.2c2.4,2.4,5.6,3.6,9.4,3.6s6.8-1.2,9.2-3.5c2.4-2.4,3.6-5.3,3.6-8.7c0-3.6-1.2-6.6-3.7-9
		s-5.6-3.7-9.2-3.7c-3.7,0-6.8,1.2-9.3,3.6C113.2,98.4,112,101.3,112,104.6z"/>
</g>
</svg>
