<?xml version="1.0" encoding="utf-8"?>
<!-- Generator: Adobe Illustrator 19.2.1, SVG Export Plug-In . SVG Version: 6.00 Build 0)  -->
<svg version="1.1" id="Layer_1" xmlns="http://www.w3.org/2000/svg" xmlns:xlink="http://www.w3.org/1999/xlink" x="0px" y="0px"
	 viewBox="0 0 250 250" style="enable-background:new 0 0 250 250;" xml:space="preserve">
<style type="text/css">
	.st0{fill:#002A57;}
	.st1{display:none;fill:none;stroke:#34B4CF;stroke-width:3;stroke-miterlimit:10;}
	.st2{enable-background:new    ;}
	.st3{fill:#F2F3F3;}
</style>
<circle class="st0" cx="125" cy="125" r="125"/>
<circle class="st1" cx="125" cy="125" r="54.1"/>
<g class="st2">
	<path class="st3" d="M100.4,145.8l9.4-0.9c0.8,4.4,2.3,7.6,4.5,9.6s5.1,3,8.6,3c3,0,5.6-0.7,7.9-2.1c2.3-1.4,4.1-3.2,5.5-5.5
		s2.7-5.4,3.6-9.3c1-3.9,1.5-7.9,1.5-11.9c0-0.4,0-1.1-0.1-1.9c-2,3.1-4.6,5.6-8,7.6c-3.4,1.9-7,2.9-11,2.9
		c-6.6,0-12.1-2.4-16.7-7.1s-6.8-11-6.8-18.8c0-8.1,2.4-14.5,7.1-19.4s10.7-7.4,17.8-7.4c5.2,0,9.9,1.4,14.2,4.2
		c4.3,2.8,7.5,6.7,9.7,11.9c2.2,5.1,3.3,12.6,3.3,22.3c0,10.1-1.1,18.2-3.3,24.2s-5.5,10.6-9.8,13.7c-4.4,3.1-9.5,4.7-15.3,4.7
		c-6.2,0-11.3-1.7-15.2-5.2C103.5,156.9,101.2,152.1,100.4,145.8z M140.3,110.8c0-5.6-1.5-10-4.5-13.3s-6.6-4.9-10.7-4.9
		c-4.3,0-8.1,1.8-11.3,5.3c-3.2,3.5-4.8,8.1-4.8,13.8c0,5.1,1.5,9.2,4.6,12.3c3.1,3.2,6.8,4.7,11.3,4.7c4.5,0,8.2-1.6,11.1-4.7
		C138.8,120.8,140.3,116.4,140.3,110.8z"/>
</g>
</svg>
