<?xml version="1.0" encoding="utf-8"?>
<!-- Generator: Adobe Illustrator 19.2.1, SVG Export Plug-In . SVG Version: 6.00 Build 0)  -->
<svg version="1.1" id="Layer_1" xmlns="http://www.w3.org/2000/svg" xmlns:xlink="http://www.w3.org/1999/xlink" x="0px" y="0px"
	 viewBox="0 0 250 250" style="enable-background:new 0 0 250 250;" xml:space="preserve">
<style type="text/css">
	.st0{display:none;fill:#34B4CF;}
	.st1{fill:#002A57;}
	.st2{enable-background:new    ;}
</style>
<circle class="st0" cx="125" cy="125" r="54.1"/>
<path class="st1" d="M125,250C56.1,250,0,193.9,0,125S56.1,0,125,0s125,56.1,125,125S193.9,250,125,250z M125,3.1
	C57.8,3.1,3.1,57.8,3.1,125S57.8,246.9,125,246.9S246.9,192.2,246.9,125S192.2,3.1,125,3.1z"/>
<g class="st2">
	<path class="st1" d="M99.4,125c0-9.3,1-16.7,2.9-22.4c1.9-5.7,4.7-10,8.5-13.1s8.5-4.6,14.2-4.6c4.2,0,7.9,0.8,11.1,2.5
		c3.2,1.7,5.8,4.1,7.9,7.3c2.1,3.2,3.7,7.1,4.9,11.7s1.8,10.8,1.8,18.5c0,9.2-0.9,16.6-2.8,22.3c-1.9,5.7-4.7,10-8.5,13.1
		s-8.5,4.6-14.3,4.6c-7.6,0-13.5-2.7-17.8-8.1C102,150.4,99.4,139.8,99.4,125z M109.3,125c0,12.9,1.5,21.4,4.5,25.7
		s6.7,6.4,11.2,6.4s8.1-2.1,11.2-6.4c3-4.3,4.5-12.8,4.5-25.7s-1.5-21.5-4.5-25.7s-6.8-6.4-11.3-6.4c-4.4,0-8,1.9-10.6,5.6
		C111,103.3,109.3,112.2,109.3,125z"/>
</g>
</svg>
