<?xml version="1.0" encoding="utf-8"?>
<!-- Generator: Adobe Illustrator 19.2.1, SVG Export Plug-In . SVG Version: 6.00 Build 0)  -->
<svg version="1.1" id="Layer_1" xmlns="http://www.w3.org/2000/svg" xmlns:xlink="http://www.w3.org/1999/xlink" x="0px" y="0px"
	 viewBox="0 0 250 250" style="enable-background:new 0 0 250 250;" xml:space="preserve">
<style type="text/css">
	.st0{fill:#002A57;}
	.st1{display:none;fill:none;stroke:#34B4CF;stroke-width:3;stroke-miterlimit:10;}
	.st2{enable-background:new    ;}
	.st3{fill:#F2F3F3;}
</style>
<circle class="st0" cx="125" cy="125" r="125"/>
<circle class="st1" cx="125" cy="125" r="54.1"/>
<g class="st2">
	<path class="st3" d="M151.2,155.5v9.4H98.8c-0.1-2.3,0.3-4.6,1.1-6.8c1.3-3.6,3.5-7.1,6.4-10.6s7.2-7.5,12.8-12
		c8.6-7.1,14.5-12.7,17.5-16.8c3-4.1,4.5-8,4.5-11.7c0-3.9-1.4-7.1-4.1-9.8s-6.4-4-10.8-4c-4.7,0-8.4,1.4-11.3,4.2
		c-2.8,2.8-4.2,6.7-4.3,11.7l-10-1c0.7-7.5,3.3-13.2,7.7-17.1c4.5-3.9,10.5-5.9,18-5.9c7.6,0,13.6,2.1,18.1,6.3
		c4.4,4.2,6.7,9.5,6.7,15.7c0,3.2-0.6,6.3-1.9,9.4c-1.3,3.1-3.5,6.3-6.5,9.7c-3,3.4-8,8.1-15,14c-5.8,4.9-9.6,8.2-11.3,10
		c-1.7,1.8-3,3.5-4.1,5.3L151.2,155.5L151.2,155.5z"/>
</g>
</svg>
