<?xml version="1.0" encoding="utf-8"?>
<!-- Generator: Adobe Illustrator 19.2.1, SVG Export Plug-In . SVG Version: 6.00 Build 0)  -->
<svg version="1.1" id="Layer_1" xmlns="http://www.w3.org/2000/svg" xmlns:xlink="http://www.w3.org/1999/xlink" x="0px" y="0px"
	 viewBox="0 0 250 250" style="enable-background:new 0 0 250 250;" xml:space="preserve">
<style type="text/css">
	.st0{fill:#002A57;}
	.st1{display:none;fill:none;stroke:#34B4CF;stroke-width:3;stroke-miterlimit:10;}
	.st2{enable-background:new    ;}
	.st3{fill:#F2F3F3;}
</style>
<circle class="st0" cx="125" cy="125" r="125"/>
<circle class="st1" cx="125" cy="125" r="54.1"/>
<g class="st2">
	<path class="st3" d="M149.8,104.2l-9.7,0.8c-0.9-3.8-2.1-6.6-3.7-8.3c-2.6-2.8-5.9-4.2-9.7-4.2c-3.1,0-5.8,0.9-8.2,2.6
		c-3.1,2.2-5.5,5.5-7.3,9.8s-2.7,10.4-2.8,18.4c2.3-3.6,5.2-6.2,8.6-8c3.4-1.7,6.9-2.6,10.7-2.6c6.5,0,12,2.4,16.6,7.2
		c4.6,4.8,6.9,11,6.9,18.5c0,5-1.1,9.6-3.2,13.9c-2.1,4.3-5.1,7.6-8.9,9.8s-8,3.4-12.8,3.4c-8.1,0-14.7-3-19.9-9
		c-5.1-6-7.7-15.8-7.7-29.5c0-15.3,2.8-26.5,8.5-33.5c4.9-6.1,11.6-9.1,20-9.1c6.2,0,11.4,1.8,15.4,5.3
		C146.6,93.2,149,98.1,149.8,104.2z M110,138.5c0,3.4,0.7,6.6,2.1,9.6c1.4,3.1,3.4,5.4,6,7s5.3,2.4,8.1,2.4c4.1,0,7.7-1.7,10.6-5
		c3-3.3,4.4-7.8,4.4-13.5c0-5.5-1.5-9.8-4.4-13s-6.6-4.7-11-4.7c-4.4,0-8.1,1.6-11.2,4.7C111.5,129.2,110,133.3,110,138.5z"/>
</g>
</svg>
