<?xml version="1.0" encoding="utf-8"?>
<!-- Generator: Adobe Illustrator 19.2.1, SVG Export Plug-In . SVG Version: 6.00 Build 0)  -->
<svg version="1.1" id="Capa_1" xmlns="http://www.w3.org/2000/svg" xmlns:xlink="http://www.w3.org/1999/xlink" x="0px" y="0px"
	 viewBox="0 0 80 80" style="enable-background:new 0 0 80 80;" xml:space="preserve">
<style type="text/css">
	.st0{fill:#F1900E;}
</style>
<g>
	<path class="st0" d="M45.4,25v42c0,1.7,0.1,3,0.2,4.1c0.1,1,0.3,1.9,0.5,2.5c0.2,0.6,0.5,1.1,0.9,1.5c0.4,0.3,0.8,0.6,1.3,0.9
		c1,0.5,2.8,0.8,5.3,0.8v2.1H27.3v-2.1c1.3,0,2.4-0.1,3.3-0.2c0.8-0.1,1.5-0.3,2.1-0.6c0.5-0.3,0.9-0.6,1.2-1
		c0.3-0.4,0.6-0.9,0.9-1.5c0.6-1.2,0.8-3.4,0.8-6.6V46.8c0-3.3-0.1-5.9-0.2-7.8s-0.3-3.3-0.6-4.3c-0.3-0.9-0.7-1.5-1.3-1.8
		c-0.6-0.2-1.3-0.4-2.2-0.4c-1.1,0-2.4,0.3-4,0.9l-0.8-2.1L42.8,25H45.4z M39.7,1.3c1,0,2,0.2,3,0.6c0.9,0.4,1.7,0.9,2.4,1.5
		c0.7,0.6,1.2,1.4,1.6,2.3c0.4,0.9,0.6,1.8,0.6,2.8c0,1-0.2,2-0.6,2.8c-0.4,0.9-0.9,1.7-1.6,2.3c-0.7,0.7-1.5,1.2-2.4,1.6
		c-0.9,0.4-1.9,0.6-3,0.6c-1,0-2-0.2-3-0.6c-0.9-0.4-1.7-0.9-2.4-1.6c-0.7-0.7-1.2-1.5-1.6-2.3c-0.4-0.9-0.6-1.8-0.6-2.8
		c0-1,0.2-2,0.6-2.8c0.4-0.9,0.9-1.7,1.6-2.3c0.7-0.6,1.5-1.2,2.4-1.5C37.7,1.4,38.7,1.3,39.7,1.3z"/>
</g>
</svg>
