<?xml version="1.0" encoding="utf-8"?>
<!-- Generator: Adobe Illustrator 19.2.1, SVG Export Plug-In . SVG Version: 6.00 Build 0)  -->
<svg version="1.1" id="Layer_2_1_" xmlns="http://www.w3.org/2000/svg" xmlns:xlink="http://www.w3.org/1999/xlink" x="0px" y="0px"
	 viewBox="0 0 80 80" style="enable-background:new 0 0 80 80;" xml:space="preserve">
<style type="text/css">
	.st0{fill:#F1900E;}
</style>
<g>
	<path class="st0" d="M35.1,59.8c0-1.2-0.1-2.2-0.1-2.8c0-3.6,0.5-6.8,1.6-9.4c0.8-2,2-4,3.8-6c1.3-1.5,3.6-3.6,6.9-6.5
		s5.5-5.1,6.5-6.8c1-1.7,1.5-3.5,1.5-5.5c0-3.6-1.5-6.8-4.4-9.5c-2.9-2.7-6.5-4.1-10.7-4.1c-4.1,0-7.5,1.2-10.3,3.7
		c-2.7,2.5-4.5,6.3-5.4,11.6l-9.9-1.1c0.9-7,3.5-12.4,7.9-16.2c4.4-3.7,10.2-5.6,17.5-5.6c7.7,0,13.8,2,18.3,6
		c4.6,4,6.8,8.9,6.8,14.6c0,3.3-0.8,6.3-2.4,9.1c-1.6,2.8-4.7,6.2-9.4,10.2c-3.1,2.7-5.2,4.7-6.1,5.9c-1,1.3-1.7,2.7-2.1,4.4
		c-0.5,1.6-0.7,4.3-0.8,8H35.1z M34.5,78.4V67.9h11v10.6H34.5z"/>
</g>
</svg>
