<?xml version="1.0" encoding="utf-8"?>
<!-- Generator: Adobe Illustrator 19.2.1, SVG Export Plug-In . SVG Version: 6.00 Build 0)  -->
<svg version="1.1" id="Capa_1" xmlns="http://www.w3.org/2000/svg" xmlns:xlink="http://www.w3.org/1999/xlink" x="0px" y="0px"
	 viewBox="0 0 80 80" style="enable-background:new 0 0 80 80;" xml:space="preserve">
<style type="text/css">
	.st0{fill:#F09021;stroke:#172C55;stroke-width:2;stroke-miterlimit:10;}
</style>
<path class="st0" d="M77.9,44.6v-9.1l-8.5-3c-0.7-2.8-1.8-5.4-3.3-7.8l0,0l3.9-8.2L63.6,10l-8.2,3.9l0,0c-2.4-1.4-5-2.5-7.8-3.3
	l-3-8.5h-9.1l-3,8.5c-2.8,0.7-5.4,1.8-7.8,3.3l0,0L16.4,10L10,16.4l3.9,8.2l0,0c-1.4,2.4-2.5,5-3.3,7.8l-8.5,3v9.1l8.5,3
	c0.7,2.8,1.8,5.4,3.3,7.8l0,0L10,63.6l6.4,6.4l8.2-3.9l0,0c2.4,1.4,5,2.5,7.8,3.3l3,8.5h9.1l3-8.5c2.8-0.7,5.4-1.8,7.8-3.3l0,0
	l8.2,3.9l6.4-6.4l-3.9-8.2l0,0c1.4-2.4,2.5-5,3.3-7.8L77.9,44.6z M40,55.2c-8.4,0-15.2-6.8-15.2-15.2c0-8.4,6.8-15.2,15.2-15.2
	S55.2,31.6,55.2,40S48.4,55.2,40,55.2z"/>
</svg>
